<?xml version="1.0" encoding="UTF-8"?>
<svg width="52px" height="52px" viewBox="0 0 52 52" version="1.1" xmlns="http://www.w3.org/2000/svg" xmlns:xlink="http://www.w3.org/1999/xlink">
    <!-- Generator: Sketch 46.1 (44463) - http://www.bohemiancoding.com/sketch -->
    <title>rotate-lock</title>
    <desc>Created with Sketch.</desc>
    <defs></defs>
    <g id="Page-1" stroke="none" stroke-width="1" fill="none" fill-rule="evenodd">
        <g id="Help-Center" transform="translate(-695.000000, -817.000000)" fill-rule="nonzero">
            <g id="rotate-lock" transform="translate(695.000000, 817.000000)">
                <path d="M14.1666667,52 C6.355,52 0,45.645 0,37.8333333 C0,37.3733333 0.3725,37 0.833333333,37 C1.29416667,37 1.66666667,37.3733333 1.66666667,37.8333333 C1.66666667,44.7258333 7.27416667,50.3333333 14.1666667,50.3333333 C14.6275,50.3333333 15,50.7066667 15,51.1666667 C15,51.6266667 14.6275,52 14.1666667,52 Z" id="Shape" fill="#BDC8D9"></path>
                <path d="M38.7142857,5.25 C38.7142857,3.18225 40.6368571,1.5 43,1.5 C45.3631429,1.5 47.2857143,3.18225 47.2857143,5.25 L47.2857143,9 L49,9 L49,5.25 C49,2.355 46.3085714,0 43,0 C39.6914286,0 37,2.355 37,5.25 L37,9 L38.7142857,9 L38.7142857,5.25 Z" id="Shape" fill="#BDC8D9"></path>
                <path d="M49.5757933,26.8386082 L44.8317865,26.8386082 L46.0301576,28.0369794 C46.3580535,28.3648752 46.3580535,28.8948756 46.0301576,29.2227714 L29.2227714,46.0301576 C28.8948756,46.3580535 28.3640366,46.3580535 28.0369794,46.0301576 L7.1556344,25.1496513 C6.82773858,24.8217554 6.82773858,24.291755 7.1556344,23.9638592 L23.9630206,7.1556344 C24.2909164,6.82773858 24.8217554,6.82773858 25.1488126,7.1556344 L31.8702576,13.8770794 L31.8702576,12.5822683 C31.8702576,11.6488973 32.3876789,10.8413176 33.1441035,10.4077571 L23.9630206,1.22583558 C22.3285732,-0.408611861 19.6676692,-0.408611861 18.0332218,1.22583558 L1.22583558,18.0332218 C-0.408611861,19.6676692 -0.408611861,22.3285732 1.22583558,23.9630206 L28.0369794,50.7741644 C29.6714268,52.4086119 32.3323308,52.4086119 33.9667782,50.7741644 L50.7741644,33.9667782 C52.4086119,32.3323308 52.4086119,29.6714268 50.7741644,28.0369794 L49.5757933,26.8386082 Z M11.4082167,11.4082167 C12.0631698,10.7532637 13.1248478,10.7532637 13.7798008,11.4082167 C14.4347539,12.0631698 14.4347539,13.1248478 13.7798008,13.7798008 C13.1248478,14.4347539 12.0631698,14.4347539 11.4082167,13.7798008 C10.7532637,13.1256864 10.7532637,12.0640084 11.4082167,11.4082167 Z" id="Shape" fill="#00A2FF"></path>
                <path d="M50.1818182,11 L33.8181818,11 C33.3665455,11 33,11.364 33,11.8125 L33,23.1875 C33,23.636 33.3665455,24 33.8181818,24 L50.1818182,24 C50.6334545,24 51,23.636 51,23.1875 L51,11.8125 C51,11.364 50.6334545,11 50.1818182,11 Z M42,19.125 C41.0959091,19.125 40.3636364,18.3978125 40.3636364,17.5 C40.3636364,16.6021875 41.0959091,15.875 42,15.875 C42.9040909,15.875 43.6363636,16.6021875 43.6363636,17.5 C43.6363636,18.3978125 42.9040909,19.125 42,19.125 Z" id="Shape" fill="#BDC8D9"></path>
            </g>
        </g>
    </g>
</svg>