<?xml version="1.0" encoding="UTF-8"?>
<svg width="57px" height="57px" viewBox="0 0 57 57" version="1.1" xmlns="http://www.w3.org/2000/svg" xmlns:xlink="http://www.w3.org/1999/xlink">
    <!-- Generator: Sketch 46.1 (44463) - http://www.bohemiancoding.com/sketch -->
    <title>explore-user</title>
    <desc>Created with Sketch.</desc>
    <defs></defs>
    <g id="Page-1" stroke="none" stroke-width="1" fill="none" fill-rule="evenodd">
        <g id="Help-Center" transform="translate(-308.000000, -817.000000)" fill-rule="nonzero">
            <g id="explore-user" transform="translate(308.000000, 817.000000)">
                <path d="M37.7777778,41 L18.2222222,41 C17.5475556,41 17,40.44 17,39.75 L17,36.9475 C17,34.72875 18.4226667,32.78 20.5028889,32.15 C22.4511111,31.56 25.0715556,31 28,31 C30.8795556,31 33.5171111,31.57 35.4861111,32.165 C37.57,32.795 39,34.7425 39,36.96625 L39,39.75 C39,40.44 38.4524444,41 37.7777778,41 Z" id="Shape" fill="#BDC8D9"></path>
                <path d="M22,21.3636364 C22,17.8496364 24.6868,15 28,15 C31.3132,15 34,17.8496364 34,21.3636364 C34,24.8776364 31.3132,29 28,29 C24.6868,29 22,24.8776364 22,21.3636364 Z" id="Shape" fill="#BDC8D9"></path>
                <path d="M54.3631304,16.5188478 C53.7051522,17.0256522 52.9876957,17.4593478 52.2144783,17.7901957 C53.7150652,21.1123043 54.5217391,24.7491522 54.5217391,28.5 C54.5217391,42.8491304 42.8491304,54.5217391 28.5,54.5217391 C14.1508696,54.5217391 2.47826087,42.8491304 2.47826087,28.5 C2.47826087,14.1508696 14.1508696,2.47826087 28.5,2.47826087 C33.4837826,2.47826087 38.3498478,3.93919565 42.5133261,6.5996087 C42.2803696,7.2513913 42.1304348,7.94282609 42.1304348,8.67391304 C42.1304348,12.0901957 44.9098043,14.8695652 48.326087,14.8695652 C51.7423696,14.8695652 54.5217391,12.0901957 54.5217391,8.67391304 C54.5217391,5.25763043 51.7423696,2.47826087 48.326087,2.47826087 C46.5318261,2.47826087 44.925913,3.25767391 43.7933478,4.48069565 C39.2457391,1.58732609 33.9360652,0 28.5,0 C12.7853478,0 0,12.7853478 0,28.5 C0,44.2146522 12.7853478,57 28.5,57 C44.2146522,57 57,44.2146522 57,28.5 C57,24.2981087 56.0793261,20.2226087 54.3631304,16.5188478 Z" id="Shape" fill="#E74C3C"></path>
            </g>
        </g>
    </g>
</svg>