<?xml version="1.0" encoding="UTF-8"?>
<svg width="63px" height="49px" viewBox="0 0 63 49" version="1.1" xmlns="http://www.w3.org/2000/svg" xmlns:xlink="http://www.w3.org/1999/xlink">
    <!-- Generator: Sketch 46.1 (44463) - http://www.bohemiancoding.com/sketch -->
    <title>l-system-update</title>
    <desc>Created with Sketch.</desc>
    <defs></defs>
    <g id="Page-1" stroke="none" stroke-width="1" fill="none" fill-rule="evenodd">
        <g id="Help-Center" transform="translate(-747.000000, -437.000000)" fill-rule="nonzero">
            <g id="l-system-update" transform="translate(747.000000, 437.000000)">
                <path d="M62.914,37.593 C62.753,37.232 62.395,37 62,37 L55,37 L55,23 L51,23 L51,37 L44,37 C43.605,37 43.247,37.232 43.086,37.593 C42.925,37.954 42.992,38.375 43.256,38.669 L52.256,48.669 C52.446,48.88 52.716,49 53,49 C53.284,49 53.554,48.88 53.743,48.669 L62.743,38.669 C63.007,38.375 63.074,37.954 62.914,37.593 Z" id="Shape" fill="#BDC8D9"></path>
                <path d="M55,21 L51,21 L51,6 C51,4.897 50.103,4 49,4 L11,4 C9.897,4 9,4.897 9,6 L9,35 L5,35 L5,6 C5,2.691 7.691,0 11,0 L49,0 C52.309,0 55,2.691 55,6 L55,21 Z" id="Shape" fill="#14C549"></path>
                <circle id="Oval" fill="#14C549" cx="30" cy="9" r="2"></circle>
                <path d="M41.77,40.007 C41.032,39.185 40.816,38.029 41.18,37 L1,37 C0.447,37 0,37.448 0,38 C0,42.962 4.037,47 9,47 L48.064,47 L41.77,40.007 Z" id="Shape" fill="#14C549"></path>
            </g>
        </g>
    </g>
</svg>