<?xml version="1.0" encoding="UTF-8"?>
<svg width="49px" height="61px" viewBox="0 0 49 61" version="1.1" xmlns="http://www.w3.org/2000/svg" xmlns:xlink="http://www.w3.org/1999/xlink">
    <!-- Generator: Sketch 46.1 (44463) - http://www.bohemiancoding.com/sketch -->
    <title>question</title>
    <desc>Created with Sketch.</desc>
    <defs></defs>
    <g id="Page-1" stroke="none" stroke-width="1" fill="none" fill-rule="evenodd">
        <g id="Help-Center" transform="translate(-1078.000000, -817.000000)" fill-rule="nonzero">
            <g id="question" transform="translate(1078.000000, 817.000000)">
                <polygon id="Shape" fill="#BDC8D9" points="37 1 37 12 48 12"></polygon>
                <path d="M36.26,13.7741935 C35.71904,13.7741935 35.28,13.3334194 35.28,12.7903226 L35.28,0 L1.96,0 C0.8771,0 0,0.880564516 0,1.96774194 L0,59.0322581 C0,60.1194355 0.8771,61 1.96,61 L47.04,61 C48.1229,61 49,60.1194355 49,59.0322581 L49,13.7741935 L36.26,13.7741935 Z M24.5,46.2419355 C23.41906,46.2419355 22.54,45.3594032 22.54,44.2741935 C22.54,43.1889839 23.41906,42.3064516 24.5,42.3064516 C25.58094,42.3064516 26.46,43.1889839 26.46,44.2741935 C26.46,45.3594032 25.58094,46.2419355 24.5,46.2419355 Z M25.48,31.4100806 L25.48,36.4032258 C25.48,36.9463226 25.04096,37.3870968 24.5,37.3870968 C23.95904,37.3870968 23.52,36.9463226 23.52,36.4032258 L23.52,30.5 C23.52,29.9569032 23.95904,29.516129 24.5,29.516129 C27.11072,29.516129 29.4,27.2178065 29.4,24.5967742 C29.4,21.9757419 27.11072,19.6774194 24.5,19.6774194 C22.68406,19.6774194 20.71818,21.0499194 19.92634,22.8681129 C19.70878,23.3659516 19.13254,23.5912581 18.63568,23.3757903 C18.1398,23.1583548 17.91342,22.577871 18.13,22.0800323 C19.2325,19.5475484 21.91084,17.7096774 24.5,17.7096774 C28.21812,17.7096774 31.36,20.8639677 31.36,24.5967742 C31.36,27.9970323 28.75418,30.9161774 25.48,31.4100806 Z" id="Shape" fill="#00CC64"></path>
            </g>
        </g>
    </g>
</svg>