<?xml version="1.0" encoding="UTF-8"?>
<svg width="62px" height="58px" viewBox="0 0 62 58" version="1.1" xmlns="http://www.w3.org/2000/svg" xmlns:xlink="http://www.w3.org/1999/xlink">
    <!-- Generator: Sketch 46.1 (44463) - http://www.bohemiancoding.com/sketch -->
    <title>credit-locked</title>
    <desc>Created with Sketch.</desc>
    <defs></defs>
    <g id="Page-1" stroke="none" stroke-width="1" fill="none" fill-rule="evenodd">
        <g id="Help-Center" transform="translate(-1191.000000, -860.000000)" fill-rule="nonzero">
            <g id="credit-locked" transform="translate(1191.000000, 860.000000)">
                <path d="M9,32 C8.447,32 8,32.448 8,33 C8,33.552 8.447,34 9,34 L23,34 C23.553,34 24,33.552 24,33 C24,32.448 23.553,32 23,32 L9,32 Z" id="Shape" fill="#14C549"></path>
                <path d="M57,0 L5,0 C2.243,0 0,2.243 0,5 L0,41 C0,43.757 2.243,46 5,46 L30,46 L30,44 L5,44 C3.346,44 2,42.654 2,41 L2,23 L60,23 L60,41 L62,41 L62,5 C62,2.243 59.757,0 57,0 Z M60,13 L2,13 L2,5 C2,3.346 3.346,2 5,2 L57,2 C58.654,2 60,3.346 60,5 L60,13 Z" id="Shape" fill="#14C549"></path>
                <path d="M55,38 L52,38 L52,35 C52,31.075 48.925,28 45,28 C41.075,28 38,31.075 38,35 L38,38 L35,38 C34.447,38 34,38.448 34,39 L34,57 C34,57.552 34.447,58 35,58 L55,58 C55.553,58 56,57.552 56,57 L56,39 C56,38.448 55.553,38 55,38 Z M46,48.816 L46,52 C46,52.552 45.552,53 45,53 C44.448,53 44,52.552 44,52 L44,48.816 C42.837,48.403 42,47.304 42,46 C42,44.343 43.343,43 45,43 C46.657,43 48,44.343 48,46 C48,47.304 47.163,48.403 46,48.816 Z M50,38 L40,38 L40,35 C40,32.149 42.149,30 45,30 C47.851,30 50,32.149 50,35 L50,38 Z" id="Shape" fill="#BDC8D9"></path>
            </g>
        </g>
    </g>
</svg>