<?xml version="1.0" encoding="UTF-8"?>
<svg width="59px" height="59px" viewBox="0 0 59 59" version="1.1" xmlns="http://www.w3.org/2000/svg" xmlns:xlink="http://www.w3.org/1999/xlink">
    <!-- Generator: Sketch 46.1 (44463) - http://www.bohemiancoding.com/sketch -->
    <title>support-16</title>
    <desc>Created with Sketch.</desc>
    <defs></defs>
    <g id="Page-1" stroke="none" stroke-width="1" fill="none" fill-rule="evenodd">
        <g id="Help-Center" transform="translate(-307.000000, -432.000000)" fill-rule="nonzero">
            <g id="support-16" transform="translate(307.000000, 432.000000)">
                <path d="M58,30 C58,14.5604138 45.4386207,2 30,2 C14.5613793,2 2,14.5604138 2,30 C2,45.4395862 14.5613793,58 30,58 C45.4386207,58 58,45.4395862 58,30 Z M30,42.5517241 C23.0791724,42.5517241 17.4482759,36.9208276 17.4482759,30 C17.4482759,23.0791724 23.0791724,17.4482759 30,17.4482759 C36.9208276,17.4482759 42.5517241,23.0791724 42.5517241,30 C42.5517241,36.9208276 36.9208276,42.5517241 30,42.5517241 Z M3.93103448,30 C3.93103448,28.349931 4.09227586,26.7384828 4.38675862,25.1724138 L16.362069,25.1724138 C15.8252414,26.6853793 15.5172414,28.3055172 15.5172414,30 C15.5172414,31.6944828 15.8252414,33.3146207 16.362069,34.8275862 L4.38675862,34.8275862 C4.09227586,33.2615172 3.93103448,31.650069 3.93103448,30 Z M43.637931,25.1724138 L55.6132414,25.1724138 C55.9077241,26.7384828 56.0689655,28.349931 56.0689655,30 C56.0689655,31.650069 55.9077241,33.2615172 55.6132414,34.8275862 L43.637931,34.8275862 C44.1747586,33.3146207 44.4827586,31.6944828 44.4827586,30 C44.4827586,28.3055172 44.1747586,26.6853793 43.637931,25.1724138 Z M34.8275862,4.38675862 L34.8275862,16.362069 C33.3146207,15.8252414 31.6944828,15.5172414 30,15.5172414 C28.3055172,15.5172414 26.6853793,15.8252414 25.1724138,16.362069 L25.1724138,4.38675862 C26.7384828,4.09227586 28.349931,3.93103448 30,3.93103448 C31.650069,3.93103448 33.2615172,4.09227586 34.8275862,4.38675862 Z M25.1724138,55.6132414 L25.1724138,43.637931 C26.6853793,44.1747586 28.3055172,44.4827586 30,44.4827586 C31.6944828,44.4827586 33.3146207,44.1747586 34.8275862,43.637931 L34.8275862,55.6132414 C33.2615172,55.9077241 31.650069,56.0689655 30,56.0689655 C28.349931,56.0689655 26.7384828,55.9077241 25.1724138,55.6132414 Z" id="Shape" fill="#00A4FF"></path>
                <path d="M1,16 C1.553,16 2,15.552 2,15 C2,7.832 7.832,2 15,2 C15.553,2 16,1.552 16,1 C16,0.448 15.553,0 15,0 C6.729,0 0,6.729 0,15 C0,15.552 0.447,16 1,16 Z" id="Shape" fill="#BDC8D9"></path>
                <path d="M44,2 C51.168,2 57,7.832 57,15 C57,15.552 57.447,16 58,16 C58.553,16 59,15.552 59,15 C59,6.729 52.271,0 44,0 C43.447,0 43,0.448 43,1 C43,1.552 43.447,2 44,2 Z" id="Shape" fill="#BDC8D9"></path>
                <path d="M58,43 C57.447,43 57,43.448 57,44 C57,51.168 51.168,57 44,57 C43.447,57 43,57.448 43,58 C43,58.552 43.447,59 44,59 C52.271,59 59,52.271 59,44 C59,43.448 58.553,43 58,43 Z" id="Shape" fill="#BDC8D9"></path>
                <path d="M15,57 C7.832,57 2,51.168 2,44 C2,43.448 1.553,43 1,43 C0.447,43 0,43.448 0,44 C0,52.271 6.729,59 15,59 C15.553,59 16,58.552 16,58 C16,57.448 15.553,57 15,57 Z" id="Shape" fill="#BDC8D9"></path>
            </g>
        </g>
    </g>
</svg>