<?xml version="1.0" encoding="UTF-8"?>
<svg width="49px" height="49px" viewBox="0 0 49 49" version="1.1" xmlns="http://www.w3.org/2000/svg" xmlns:xlink="http://www.w3.org/1999/xlink">
    <!-- Generator: Sketch 46.1 (44463) - http://www.bohemiancoding.com/sketch -->
    <title>Page 1</title>
    <desc>Created with Sketch.</desc>
    <defs></defs>
    <g id="Page-1" stroke="none" stroke-width="1" fill="none" fill-rule="evenodd">
        <g id="Help-Center" transform="translate(-694.000000, -819.000000)">
            <g id="Page-1" transform="translate(694.000000, 819.000000)">
                <path d="M34.5968461,0 L15.5370781,0 C14.6148312,0 14,0.694444444 14,1.38888889 L14,5 L35.9802164,5 L35.9802164,1.38888889 C36.1339242,0.694444444 35.3653851,0 34.5968461,0 L34.5968461,0 Z M22.9150528,3.19444444 C22.9150528,3.75 22.4539294,4.30555556 21.6853903,4.30555556 C21.0705591,4.30555556 20.4557279,3.88888889 20.4557279,3.19444444 L20.4557279,1.94444444 C20.4557279,1.38888889 20.9168513,0.833333333 21.6853903,0.833333333 C22.3002216,0.833333333 22.9150528,1.25 22.9150528,1.94444444 L22.9150528,3.19444444 Z M29.5244885,3.19444444 C29.5244885,3.75 29.0633651,4.30555556 28.294826,4.30555556 C27.526287,4.30555556 27.0651636,3.88888889 27.0651636,3.19444444 L27.0651636,1.94444444 C27.0651636,1.38888889 27.526287,0.833333333 28.294826,0.833333333 C29.0633651,0.833333333 29.5244885,1.25 29.5244885,1.94444444 L29.5244885,3.19444444 Z" id="Fill-1" fill="#0099FF"></path>
                <path d="M40.0232,49 C38.7688,49 37.5144,48.4827586 36.5736,47.4482759 C35.6328,46.4137931 34.0648,46.4137931 33.124,47.4482759 C32.1832,48.4827586 30.9288,49 29.6744,49 C28.42,49 27.1656,48.4827586 26.2248,47.4482759 C25.284,46.4137931 23.716,46.4137931 22.7752,47.4482759 C20.8936,49.5172414 17.7576,49.5172414 15.876,47.4482759 C15.4056,46.9310345 14.7784,46.5862069 14.1512,46.5862069 C13.524,46.5862069 12.8968,46.9310345 12.4264,47.4482759 C10.5448,49.5172414 7.4088,49.5172414 5.5272,47.4482759 C4.5864,46.4137931 3.0184,46.4137931 2.0776,47.4482759 C1.6072,47.9655172 0.8232,47.9655172 0.3528,47.4482759 C-0.1176,46.9310345 -0.1176,46.0689655 0.3528,45.5517241 C2.2344,43.4827586 5.3704,43.4827586 7.252,45.5517241 C8.1928,46.5862069 9.7608,46.5862069 10.7016,45.5517241 C11.6424,44.5172414 12.8968,44 14.1512,44 C15.4056,44 16.66,44.5172414 17.6008,45.5517241 C18.5416,46.5862069 20.1096,46.5862069 21.0504,45.5517241 C22.932,43.4827586 26.068,43.4827586 27.9496,45.5517241 C28.42,46.0689655 29.0472,46.4137931 29.6744,46.4137931 C30.3016,46.4137931 30.9288,46.0689655 31.3992,45.5517241 C33.2808,43.4827586 36.4168,43.4827586 38.2984,45.5517241 C39.2392,46.5862069 40.8072,46.5862069 41.748,45.5517241 C43.6296,43.4827586 46.7656,43.4827586 48.6472,45.5517241 C49.1176,46.0689655 49.1176,46.9310345 48.6472,47.4482759 C48.1768,47.9655172 47.3928,47.9655172 46.9224,47.4482759 C45.9816,46.4137931 44.4136,46.4137931 43.4728,47.4482759 C42.532,48.4827586 41.2776,49 40.0232,49" id="Fill-3" fill="#B5C0D6"></path>
                <path d="M23.4228856,10 C23.8855721,10 24.3482587,10.1428571 24.8109453,10.2857143 L39,15 L39,7.14285714 C39,6.57142857 38.5373134,6 37.7661692,6 L9.07960199,6 C8.46268657,6.14285714 8,6.57142857 8,7.14285714 L8,15 L22.1890547,10.2857143 C22.4975124,10.1428571 22.960199,10 23.4228856,10" id="Fill-5" fill="#0099FF"></path>
                <path d="M4.03364304,23.0382514 C3.25370723,23.3442623 2.78574574,24.2622951 3.09772006,25.0273224 L10.4291168,43.3879781 C11.6770141,42.4699454 13.2368857,41.8579235 14.9527445,41.8579235 C16.8245905,41.8579235 18.6964364,42.6229508 20.1003209,44 C21.1922311,42.9289617 22.5961155,42.3169399 24,42.010929 L24,16 L4.03364304,23.0382514 Z" id="Fill-7" fill="#0099FF"></path>
                <path d="M44.9480519,23.0382514 L25,16 L25,42.010929 C26.5584416,42.3169399 27.8051948,42.9289617 28.8961039,44 C30.2987013,42.7759563 32.1688312,42.010929 34.038961,42.010929 C35.7532468,42.010929 37.3116883,42.6229508 38.5584416,43.5409836 L45.8831169,25.1803279 C46.1948052,24.2622951 45.8831169,23.3442623 44.9480519,23.0382514" id="Fill-9" fill="#0099FF"></path>
            </g>
        </g>
    </g>
</svg>