<?xml version="1.0" encoding="UTF-8"?>
<svg width="54px" height="54px" viewBox="0 0 54 54" version="1.1" xmlns="http://www.w3.org/2000/svg" xmlns:xlink="http://www.w3.org/1999/xlink">
    <!-- Generator: Sketch 46.1 (44463) - http://www.bohemiancoding.com/sketch -->
    <title>transform-origin</title>
    <desc>Created with Sketch.</desc>
    <defs></defs>
    <g id="Page-1" stroke="none" stroke-width="1" fill="none" fill-rule="evenodd">
        <g id="Help-Center" transform="translate(-694.000000, -432.000000)" fill-rule="nonzero">
            <g id="transform-origin" transform="translate(694.000000, 432.000000)">
                <circle id="Oval" fill="#BDC8D9" cx="27" cy="27" r="7"></circle>
                <path d="M53.9976523,27 C53.9976523,24.8141739 52.4974566,22.9934348 50.4760663,22.4698696 L50.4760663,9.22578261 C52.4974566,8.70104348 53.9976523,6.88147826 53.9976523,4.69565217 C53.9976523,2.10247826 51.8952654,0 49.3022043,0 C47.1164732,0 45.2958132,1.50026087 44.7722708,3.52173913 L31.5287596,3.52173913 C31.0052172,1.50026087 29.1845572,0 26.9988261,0 C24.8130951,0 22.9924351,1.50026087 22.4688927,3.52173913 L9.22538151,3.52173913 C8.70183905,1.50026087 6.88117908,0 4.69544802,0 C2.10238685,0 0,2.10247826 0,4.69565217 C0,6.88147826 1.50019564,8.70104348 3.52158602,9.22578261 L3.52158602,22.4710435 C1.50019564,22.9934348 0,24.8141739 0,27 C0,29.1858261 1.50019564,31.0053913 3.52158602,31.5301304 L3.52158602,44.7753913 C1.50019564,45.2977826 0,47.1185217 0,49.3043478 C0,51.8975217 2.10238685,54 4.69544802,54 C6.88117908,54 8.70066519,52.4997391 9.22538151,50.4782609 L22.4700665,50.4782609 C22.993609,52.4997391 24.8142689,54 27,54 C29.1857311,54 31.0052172,52.4997391 31.5299335,50.4782609 L44.7746185,50.4782609 C45.2981609,52.4997391 47.1188209,54 49.304552,54 C51.8976131,54 54,51.8975217 54,49.3043478 C54,47.1185217 52.4998044,45.2977826 50.478414,44.7742174 L50.478414,31.5301304 C52.4974566,31.0053913 53.9976523,29.1858261 53.9976523,27 Z M48.1283422,31.5301304 L48.1283422,44.7753913 C46.4837616,45.2015217 45.1983827,46.4869565 44.7722708,48.1316087 L31.5287596,48.1316087 C31.0052172,46.1101304 29.1845572,44.6098696 26.9988261,44.6098696 C24.8130951,44.6098696 22.9924351,46.1101304 22.4688927,48.1316087 L9.22538151,48.1316087 C8.7992696,46.4857826 7.5138907,45.2003478 5.86931003,44.7742174 L5.86931003,31.5301304 C7.8907004,31.0053913 9.39089605,29.1858261 9.39089605,27 C9.39089605,24.8141739 7.8907004,22.9934348 5.86931003,22.4698696 L5.86931003,9.22578261 C7.5138907,8.79965217 8.7992696,7.51421739 9.22538151,5.86956522 L22.4700665,5.86956522 C22.993609,7.89104348 24.8130951,9.39130435 26.9988261,9.39130435 C29.1845572,9.39130435 31.0040433,7.89104348 31.5287596,5.86956522 L44.7734446,5.86956522 C45.1983827,7.51421739 46.4837616,8.79965217 48.1283422,9.22578261 L48.1283422,22.4710435 C46.1069519,22.9946087 44.6067562,24.8153478 44.6067562,27.0011739 C44.6067562,29.1858261 46.1069519,31.0053913 48.1283422,31.5301304 Z" id="Shape" fill="#EFBD00"></path>
            </g>
        </g>
    </g>
</svg>