<?xml version="1.0" encoding="UTF-8"?>
<svg width="58px" height="58px" viewBox="0 0 58 58" version="1.1" xmlns="http://www.w3.org/2000/svg" xmlns:xlink="http://www.w3.org/1999/xlink">
    <!-- Generator: Sketch 46.1 (44463) - http://www.bohemiancoding.com/sketch -->
    <title>math</title>
    <desc>Created with Sketch.</desc>
    <defs></defs>
    <g id="Page-1" stroke="none" stroke-width="1" fill="none" fill-rule="evenodd">
        <g id="Help-Center" transform="translate(-568.000000, -511.000000)" fill-rule="nonzero">
            <g id="math" transform="translate(568.000000, 511.000000)">
                <path d="M28,30 L0,30 L0,57 C0,57.553 0.447,58 1,58 L28,58 L28,30 Z M19.707,49.707 C19.512,49.902 19.256,50 19,50 C18.744,50 18.488,49.902 18.293,49.707 L14,45.414 L9.707,49.707 C9.512,49.902 9.256,50 9,50 C8.744,50 8.488,49.902 8.293,49.707 C7.902,49.316 7.902,48.684 8.293,48.293 L12.586,44 L8.293,39.707 C7.902,39.316 7.902,38.684 8.293,38.293 C8.684,37.902 9.316,37.902 9.707,38.293 L14,42.586 L18.293,38.293 C18.684,37.902 19.316,37.902 19.707,38.293 C20.098,38.684 20.098,39.316 19.707,39.707 L15.414,44 L19.707,48.293 C20.098,48.684 20.098,49.316 19.707,49.707 Z" id="Shape" fill="#BDC8D9"></path>
                <path d="M28,28 L28,0 L1,0 C0.447,0 0,0.447 0,1 L0,28 L28,28 Z M8,13 L13,13 L13,8 C13,7.447 13.447,7 14,7 C14.553,7 15,7.447 15,8 L15,13 L20,13 C20.553,13 21,13.447 21,14 C21,14.553 20.553,15 20,15 L15,15 L15,20 C15,20.553 14.553,21 14,21 C13.447,21 13,20.553 13,20 L13,15 L8,15 C7.447,15 7,14.553 7,14 C7,13.447 7.447,13 8,13 Z" id="Shape" fill="#14C549"></path>
                <path d="M30,30 L30,58 L57,58 C57.553,58 58,57.553 58,57 L58,30 L30,30 Z M50,49 L38,49 C37.447,49 37,48.553 37,48 C37,47.447 37.447,47 38,47 L50,47 C50.553,47 51,47.447 51,48 C51,48.553 50.553,49 50,49 Z M50,41 L38,41 C37.447,41 37,40.553 37,40 C37,39.447 37.447,39 38,39 L50,39 C50.553,39 51,39.447 51,40 C51,40.553 50.553,41 50,41 Z" id="Shape" fill="#14C549"></path>
                <path d="M30,28 L58,28 L58,1 C58,0.447 57.553,0 57,0 L30,0 L30,28 Z M38,13 L50,13 C50.553,13 51,13.447 51,14 C51,14.553 50.553,15 50,15 L38,15 C37.447,15 37,14.553 37,14 C37,13.447 37.447,13 38,13 Z" id="Shape" fill="#BDC8D9"></path>
            </g>
        </g>
    </g>
</svg>