<?xml version="1.0" encoding="UTF-8"?>
<svg width="59px" height="59px" viewBox="0 0 59 59" version="1.1" xmlns="http://www.w3.org/2000/svg" xmlns:xlink="http://www.w3.org/1999/xlink">
    <!-- Generator: Sketch 46.1 (44463) - http://www.bohemiancoding.com/sketch -->
    <title>headphones-mic</title>
    <desc>Created with Sketch.</desc>
    <defs></defs>
    <g id="Page-1" stroke="none" stroke-width="1" fill="none" fill-rule="evenodd">
        <g id="Help-Center" transform="translate(-1070.000000, -435.000000)" fill-rule="nonzero">
            <g id="headphones-mic" transform="translate(1070.000000, 435.000000)">
                <path d="M35.7391304,51.1495327 L20.6086957,51.1495327 C19.9126957,51.1495327 19.3478261,51.7357009 19.3478261,52.4579439 L19.3478261,53.7663551 L16.826087,53.7663551 C13.3498696,53.7663551 10.5217391,50.8315888 10.5217391,47.2242991 L10.5217391,45.6790654 C9.653,45.5272897 8.812,45.2983178 8,45 L8,47.2242991 C8,52.2747664 11.9591304,56.3831776 16.826087,56.3831776 L19.3478261,56.3831776 L19.3478261,57.6915888 C19.3478261,58.4138318 19.9126957,59 20.6086957,59 L35.7391304,59 C36.4351304,59 37,58.4138318 37,57.6915888 L37,52.4579439 C37,51.7357009 36.4351304,51.1495327 35.7391304,51.1495327 Z" id="Shape" fill="#BDC8D9"></path>
                <path d="M51.294087,18.7644412 C51.1799348,8.39891176 42.6031304,0 32.0652174,0 L26.9347826,0 C16.3968696,0 7.82006522,8.39891176 7.70591304,18.7644412 C3.17573913,20.7171471 0,25.1739706 0,30.3529412 C0,37.3265294 5.75378261,43 12.826087,43 C13.7585435,43 14.7166522,42.8912353 15.6747609,42.6775 C16.2596304,42.5472353 16.673913,42.0350294 16.673913,41.4444118 L16.673913,19.2614706 C16.673913,18.6708529 16.2596304,18.1586471 15.6747609,18.0283824 C14.7166522,17.8146471 13.7585435,17.7058824 12.826087,17.7058824 C11.9654565,17.7058824 11.1266304,17.7931471 10.3134565,17.9525 C10.8508696,9.36135294 18.0886304,2.52941176 26.9347826,2.52941176 L32.0652174,2.52941176 C40.9113696,2.52941176 48.1491304,9.36135294 48.6865435,17.9525 C47.8733696,17.7931471 47.0345435,17.7058824 46.173913,17.7058824 C45.2401739,17.7058824 44.2820652,17.8146471 43.3239565,18.0296471 C42.7403696,18.1599118 42.326087,18.6721176 42.326087,19.2627353 L42.326087,41.4444118 C42.326087,42.0350294 42.7403696,42.5472353 43.3252391,42.6775 C44.2833478,42.8912353 45.2414565,43 46.173913,43 C53.2462174,43 59,37.3265294 59,30.3529412 C59,25.1739706 55.8242609,20.7171471 51.294087,18.7644412 Z" id="Shape" fill="#F1C40F"></path>
            </g>
        </g>
    </g>
</svg>