<?xml version="1.0" encoding="UTF-8"?>
<svg width="18px" height="18px" viewBox="0 0 18 18" version="1.1" xmlns="http://www.w3.org/2000/svg" xmlns:xlink="http://www.w3.org/1999/xlink">
    <!-- Generator: Sketch 46.1 (44463) - http://www.bohemiancoding.com/sketch -->
    <title>Shape</title>
    <desc>Created with Sketch.</desc>
    <defs></defs>
    <g id="Welcome" stroke="none" stroke-width="1" fill="none" fill-rule="evenodd">
        <g id="Help-Center" transform="translate(-189.000000, -215.000000)" fill-rule="nonzero" fill="#FFFFFF">
            <g id="Group-3" transform="translate(160.000000, 193.000000)">
                <g id="zoom-2" transform="translate(29.000000, 22.000000)">
                    <path d="M14.2875,12.6335404 C15.3,11.2919255 15.8625,9.72670807 15.8625,7.9378882 C15.8625,3.57763975 12.375,0 7.9875,0 C3.6,0 0,3.57763975 0,7.9378882 C0,12.2981366 3.6,15.8757764 7.9875,15.8757764 C9.7875,15.8757764 11.475,15.3167702 12.7125,14.310559 L16.0875,17.6645963 C16.3125,17.8881988 16.65,18 16.875,18 C17.1,18 17.4375,17.8881988 17.6625,17.6645963 C18.1125,17.2173913 18.1125,16.5465839 17.6625,16.0993789 L14.2875,12.6335404 Z M7.9875,13.5279503 C4.8375,13.5279503 2.25,11.068323 2.25,7.9378882 C2.25,4.80745342 4.8375,2.23602484 7.9875,2.23602484 C11.1375,2.23602484 13.725,4.80745342 13.725,7.9378882 C13.725,11.068323 11.1375,13.5279503 7.9875,13.5279503 Z" id="Shape"></path>
                </g>
            </g>
        </g>
    </g>
</svg>